<?xml version="1.0" standalone="no"?><!DOCTYPE svg PUBLIC "-//W3C//DTD SVG 1.1//EN" "http://www.w3.org/Graphics/SVG/1.1/DTD/svg11.dtd"><svg t="1712889859096" class="icon" viewBox="0 0 1024 1024" version="1.1" xmlns="http://www.w3.org/2000/svg" p-id="5949" xmlns:xlink="http://www.w3.org/1999/xlink" width="200" height="200"><path d="M564.112 960.219H460.087c-24.262 0-44-19.738-44-44v-63.904a346.514 346.514 0 0 1-75.785-31.512l-45.272 45.271c-17.155 17.156-45.07 17.156-62.226 0l-73.557-73.556c-17.156-17.156-17.156-45.07 0-62.227l45.668-45.667a346.693 346.693 0 0 1-30.93-75.39h-64.882c-24.262 0-44-19.738-44-44V461.21c0-24.262 19.738-44 44-44h65.746a346.846 346.846 0 0 1 31.164-74.291l-46.766-46.766c-17.156-17.156-17.156-45.07 0-62.226l73.557-73.557c17.155-17.155 45.07-17.155 62.226 0l47.26 47.261a346.855 346.855 0 0 1 73.797-30.417v-66.987c0-24.262 19.738-44 44-44h104.025c24.262 0 44 19.738 44 44v67.087a346.782 346.782 0 0 1 73.671 30.443l47.386-47.387c17.156-17.155 45.07-17.155 62.227 0l73.556 73.557c17.156 17.156 17.156 45.07 0 62.226l-47.012 47.012a346.673 346.673 0 0 1 31.024 74.045h66.131c24.262 0 44 19.738 44 44v104.025c0 24.262-19.738 44-44 44h-65.262a346.785 346.785 0 0 1-30.792 75.147l45.91 45.909c17.156 17.156 17.156 45.07 0 62.227l-73.556 73.556c-17.156 17.156-45.07 17.156-62.227 0l-45.416-45.416a346.613 346.613 0 0 1-75.641 31.544v64.017c0.001 24.261-19.737 44-43.999 44z m-84.025-64h64.025v-95.243l25.586-5.235c36.224-7.411 70.235-21.601 101.089-42.174l21.829-14.555 67.666 67.666 45.272-45.272-67.875-67.874 14.269-21.768c20.204-30.819 34.082-64.723 41.249-100.769l5.122-25.76h96.775V481.21h-97.139l-5.319-25.454c-7.454-35.665-21.515-69.197-41.79-99.666l-14.521-21.821 69.229-69.229-45.272-45.272-69.384 69.384-21.774-14.303c-30.421-19.982-63.871-33.801-99.424-41.072l-25.588-5.234v-98.316h-64.025v98.274l-25.623 5.211c-35.588 7.237-69.083 21.036-99.556 41.011l-21.767 14.269-69.225-69.225-45.272 45.272 69.016 69.016-14.555 21.829c-20.345 30.514-34.454 64.117-41.932 99.876l-5.322 25.449h-96.748v64.025h96.4l5.119 25.764c7.175 36.107 21.099 70.079 41.385 100.971l14.298 21.774-67.662 67.661 45.272 45.272 67.492-67.492 21.822 14.525c30.891 20.563 64.949 34.727 101.229 42.1l25.627 5.208v95.202z" fill="" p-id="5950"></path><path d="M511.955 695.478c-100.977 0-183.128-82.15-183.128-183.128 0-100.977 82.151-183.128 183.128-183.128s183.128 82.151 183.128 183.128c0 100.977-82.151 183.128-183.128 183.128z m0-302.257c-65.688 0-119.128 53.441-119.128 119.128s53.44 119.128 119.128 119.128 119.128-53.44 119.128-119.128-53.44-119.128-119.128-119.128z" fill="" p-id="5951"></path></svg>